<?xml version="1.0" encoding="UTF-8"?>
<svg version="1.1" xmlns="http://www.w3.org/2000/svg" width="1161" height="488">
<path d="M0 0 C4.07334125 0.00436625 8.14668118 0.00285375 12.22002411 0.00209773 C19.25714883 0.00157636 26.2942642 0.0046824 33.33138657 0.01033556 C43.50556605 0.01850346 53.67974107 0.02107118 63.85392348 0.02232356 C80.36557242 0.02450581 96.87721637 0.03114337 113.38886261 0.04062617 C129.41718267 0.04982174 145.44550138 0.05689206 161.47382355 0.06113398 C162.46376405 0.0613967 163.45370456 0.06165943 164.47364326 0.06193011 C169.44046756 0.06323526 174.40729187 0.06449894 179.37411618 0.06574202 C220.50208199 0.07608886 261.63004233 0.09368456 302.75800323 0.11606562 C302.76512891 0.96683297 302.76512891 0.96683297 302.77239853 1.83478755 C302.89005564 15.87970509 303.00808424 29.92461948 303.12648684 43.96953076 C303.18374595 50.76258104 303.24088772 57.55563227 303.29775238 64.34868586 C303.75773888 124.20126842 303.75773888 124.20126842 304.43242741 184.05168974 C304.46968064 189.421889 304.36132877 193.13117911 300.84418488 197.36240351 C298.31037356 199.86379047 296.60149919 201.00104345 293.00800323 201.49106562 C288.55692393 200.97747955 286.82311109 199.32049656 283.75800323 196.11606562 C281.90300139 191.6646996 281.40984182 187.61421648 281.16815948 182.81919062 C281.13134567 182.09274348 281.09453186 181.36629633 281.05660248 180.61783564 C280.59750343 170.82583379 280.42801497 161.02241587 280.25531769 151.22202265 C280.19682974 147.9404905 280.13116162 144.65916231 280.06464386 141.37778437 C279.70525747 121.94810125 279.75800323 102.55958663 279.75800323 83.11606562 C179.10800323 83.11606562 78.45800323 83.11606562 -25.24199677 83.11606562 C-25.24199677 97.30606562 -25.24199677 111.49606562 -25.24199677 126.11606562 C-25.40637331 143.37992853 -25.40637331 143.37992853 -25.55937958 151.77207148 C-25.61903857 155.16985359 -25.66476647 158.56768295 -25.71074677 161.965675 C-25.74897815 164.19160088 -25.78800648 166.41751327 -25.82793427 168.64340937 C-25.83948547 169.62776469 -25.85103668 170.61212 -25.86293793 171.62630427 C-26.2903617 191.87759054 -26.2903617 191.87759054 -32.24199677 199.11606562 C-35.67949677 200.36606562 -35.67949677 200.36606562 -39.24199677 200.11606562 C-44.13389448 196.36181854 -47.89085403 191.53080976 -48.78591156 185.3756634 C-48.82648783 183.93254266 -48.84534883 182.48871085 -48.84697723 181.0450207 C-48.86322269 180.23392785 -48.87946815 179.42283499 -48.8962059 178.58716357 C-48.94532584 175.83239276 -48.96504455 173.07822884 -48.98418427 170.32309687 C-49.01185104 168.30931249 -49.04069033 166.29554395 -49.07057953 164.28179133 C-49.16427229 157.22670593 -49.20615952 150.17165128 -49.24199677 143.11606562 C-49.24934529 141.76336114 -49.25671571 140.41065677 -49.26410675 139.05795252 C-49.37407879 118.39212524 -49.38606793 97.72656185 -49.37056899 77.06049895 C-49.36616786 70.5177672 -49.36936421 63.97505434 -49.37419426 57.43232375 C-49.3787178 51.04586857 -49.37938286 44.65942163 -49.3767556 38.27296537 C-49.37520205 34.49144522 -49.37497585 30.70993806 -49.37829208 26.92841876 C-49.38169361 22.76658542 -49.37699468 18.60480086 -49.3713913 14.44296992 C-49.37341553 13.20037913 -49.37543976 11.95778834 -49.37752533 10.67754328 C-49.37470551 9.55625025 -49.37188568 8.43495722 -49.36898041 7.27968562 C-49.36860338 6.30057058 -49.36822636 5.32145554 -49.36783791 4.31267035 C-49.24199677 2.11606562 -49.24199677 2.11606562 -48.24199677 1.11606562 C-45.89194336 0.86190089 -43.57640014 0.6867099 -41.21773529 0.56066096 C-40.43041381 0.51850665 -39.64309234 0.47635234 -38.83191264 0.43292063 C-25.90062678 -0.16900873 -12.94225301 -0.01743854 0 0 Z M0.19055581 28.15587056 C-2.14683884 28.2041612 -4.48083036 28.28223902 -6.81687164 28.37415278 C-8.09512408 28.41939145 -9.37337652 28.46463011 -10.69036388 28.51123965 C-15.74129232 29.37138843 -19.61174556 31.3227893 -23.11699677 35.17856562 C-28.32698865 44.15132942 -25.24199677 52.61698583 -25.24199677 64.11606562 C75.40800323 64.11606562 176.05800323 64.11606562 279.75800323 64.11606562 C282.25678343 42.17235349 282.25678343 42.17235349 275.75800323 35.11606562 C273.35767137 33.5208699 273.35767137 33.5208699 270.75800323 32.36606562 C269.91237823 31.95872187 269.06675323 31.55137812 268.19550323 31.13169062 C255.13478878 25.68972627 237.81910669 27.97338365 223.94818878 27.98667109 C221.55994388 27.98531397 219.17169919 27.98353229 216.7834549 27.98136103 C210.33086368 27.976823 203.87828856 27.97856148 197.42569709 27.98174012 C193.38615913 27.98352569 189.34662319 27.9831797 185.30708504 27.98224986 C184.63392668 27.98209662 183.96076833 27.98194339 183.26721123 27.98178551 C181.89914514 27.98146575 180.53107905 27.98114153 179.16301296 27.98081292 C166.3678708 27.97796901 153.57273582 27.9812277 140.77759484 27.98661329 C129.8339676 27.99107727 118.89035098 27.99030662 107.94672394 27.98569453 C95.19821318 27.98032419 82.44970871 27.9782468 69.70119697 27.98130679 C68.33758756 27.98162529 66.97397814 27.98193967 65.61036873 27.98224986 C64.60434111 27.98248127 64.60434111 27.98248127 63.57798969 27.98271736 C58.88549177 27.98357538 54.19299909 27.98208532 49.50050163 27.9797703 C43.16468714 27.97686263 36.82889251 27.97892007 30.49308014 27.98466456 C28.17973933 27.98597688 25.86639683 27.98562431 23.55305672 27.98340189 C15.76397517 27.97661404 7.97863156 28.03512656 0.19055581 28.15587056 Z " fill="#FFFFFF" transform="translate(90.24199676513672,254.88393437862396)"/>
<path d="M0 0 C0.76044113 -0.00701431 1.52088226 -0.01402863 2.30436707 -0.02125549 C4.74984698 -0.03869282 7.19508518 -0.04510871 9.640625 -0.046875 C10.47320831 -0.04754974 11.30579163 -0.04822449 12.16360474 -0.04891968 C38.5116588 -0.01491317 63.84668929 3.96413573 83.6484375 22.921875 C90.1570435 29.54387135 95.42428469 36.03495308 99.890625 44.203125 C100.24769531 44.81285156 100.60476563 45.42257813 100.97265625 46.05078125 C103.39824238 50.4477601 104.97378438 55.12555214 106.515625 59.890625 C106.72195557 60.51340332 106.92828613 61.13618164 107.14086914 61.77783203 C110.64609641 73.06913253 111.24061651 84.53079485 111.20629883 96.25854492 C111.20314284 98.50293848 111.22668743 100.7460027 111.25195312 102.99023438 C111.36517203 128.72631751 103.14982953 151.58932688 87.890625 172.203125 C87.38789062 172.88246094 86.88515625 173.56179687 86.3671875 174.26171875 C72.61278224 191.47460164 49.61298894 201.64990308 28.203125 204.734375 C21.53565731 205.45203252 14.83486463 205.38913793 8.13696289 205.38842773 C5.85738959 205.39059715 3.57831515 205.40875713 1.29882812 205.42773438 C-12.35593019 205.48278941 -25.74323101 204.65709752 -38.734375 200.078125 C-39.62044434 199.77173096 -40.50651367 199.46533691 -41.41943359 199.1496582 C-62.53542712 191.56606895 -76.71146264 178.2092912 -86.47265625 158.05078125 C-93.4348549 142.34611432 -95.47015641 125.90205751 -95.42504883 108.88647461 C-95.42189326 106.40498675 -95.44541588 103.92470053 -95.47070312 101.44335938 C-95.57047356 76.76967147 -88.24088264 53.24777171 -72.109375 34.203125 C-71.58988281 33.53925781 -71.07039062 32.87539062 -70.53515625 32.19140625 C-54.35772466 12.25360315 -25.23521054 0.15559577 0 0 Z M-36.109375 24.203125 C-36.9240625 24.80382812 -37.73875 25.40453125 -38.578125 26.0234375 C-41.49382314 28.53417756 -43.51123785 31.29170608 -45.546875 34.515625 C-45.93375488 35.12446533 -46.32063477 35.73330566 -46.71923828 36.3605957 C-55.59396991 50.80461778 -60.25403845 67.34955245 -60.27734375 84.2578125 C-60.28067215 85.11762726 -60.28400055 85.97744202 -60.28742981 86.86331177 C-60.29247332 88.68035349 -60.29483893 90.49740441 -60.29467773 92.31445312 C-60.29684097 95.03532109 -60.31495956 97.75576734 -60.33398438 100.4765625 C-60.42271467 127.57386765 -56.40903604 156.33995796 -37.046875 176.953125 C-23.80135414 189.56184197 -6.74368046 196.03360211 11.453125 196.453125 C28.02376569 196.04486284 42.1155002 190.58860011 54.14453125 179.0390625 C69.57498909 162.46669222 75.99584695 140.63828654 76.09375 118.4140625 C76.09945007 117.39317535 76.10515015 116.37228821 76.11102295 115.32046509 C76.1204296 113.16726707 76.12698959 111.01405493 76.13085938 108.86083984 C76.14053379 105.60878618 76.1715866 102.35737368 76.203125 99.10546875 C76.27634632 85.01934752 75.71177645 72.00143265 69.640625 59.015625 C69.18502197 58.01474854 69.18502197 58.01474854 68.72021484 56.99365234 C59.71759435 37.7023227 45.86034334 23.36931182 25.86181641 15.90332031 C5.06785955 8.51701015 -19.16313163 9.14354093 -36.109375 24.203125 Z " fill="#FFFFFF" transform="translate(1024.109375,75.796875)"/>
<path d="M0 0 C3.00802371 0.00314596 6.01504733 -0.02032201 9.02294922 -0.0456543 C24.72392261 -0.09835889 40.40738629 0.87483939 55.28466797 6.31567383 C56.01556641 6.56317383 56.74646484 6.81067383 57.49951172 7.06567383 C61.43615002 8.43742438 64.90672354 10.00785161 68.40966797 12.31567383 C68.2210191 21.09642125 66.70992857 29.42917003 64.90966797 38.00317383 C64.68384033 39.07889648 64.4580127 40.15461914 64.2253418 41.26293945 C62.55510886 49.02479205 62.55510886 49.02479205 61.40966797 51.31567383 C59.49951172 51.03051758 59.49951172 51.03051758 57.40966797 50.31567383 C56.63664919 48.46715067 55.8820942 46.60746565 55.24951172 44.70629883 C54.32957307 42.08768277 53.2367613 39.62972631 52.03466797 37.12817383 C51.65568359 36.33024414 51.27669922 35.53231445 50.88623047 34.71020508 C47.39073972 29.04159177 42.79511318 26.08055677 36.97216797 23.25317383 C36.2713208 22.90883301 35.57047363 22.56449219 34.84838867 22.2097168 C15.5344604 13.01551168 -10.91592648 8.72304996 -31.59033203 15.50317383 C-33.94515549 16.38530601 -36.28245326 17.31715179 -38.59033203 18.31567383 C-39.53779297 18.71141602 -40.48525391 19.1071582 -41.46142578 19.51489258 C-56.00008331 26.17567784 -67.855423 38.52458603 -75.59033203 52.31567383 C-75.97705078 52.95633789 -76.36376953 53.59700195 -76.76220703 54.25708008 C-89.96161771 77.76218447 -87.9756286 112.66944737 -81.90283203 138.00317383 C-76.1185452 157.95263023 -64.45920016 172.48542724 -46.65673828 183.05786133 C-28.59449568 192.7006522 -4.59022306 196.58160258 15.40966797 191.31567383 C18.15715701 190.15844339 20.74369916 188.87960074 23.35107422 187.43676758 C25.40966797 186.31567383 25.40966797 186.31567383 28.40966797 185.31567383 C29.09453522 183.99159714 29.75837 182.65658142 30.40966797 181.31567383 C31.08731201 180.75517334 31.76495605 180.19467285 32.46313477 179.6171875 C35.16773959 176.41935611 34.80314681 174.44170857 34.61669922 170.30395508 C34.59157761 169.62258484 34.56645599 168.9412146 34.54057312 168.23919678 C34.45430752 166.03416846 34.33877487 163.8317874 34.22216797 161.62817383 C34.15670345 160.11774692 34.09290306 158.60724697 34.03076172 157.09667969 C33.84941409 152.83483731 33.63217576 148.57556172 33.40966797 144.31567383 C33.31964802 142.44589064 33.22977007 140.57610059 33.14013672 138.70629883 C32.77089344 131.55211507 32.14874312 124.44003535 31.40966797 117.31567383 C30.80082764 117.32091064 30.1919873 117.32614746 29.56469727 117.33154297 C8.11317201 117.49185614 8.11317201 117.49185614 -1.59033203 116.31567383 C-1.26033203 113.34567383 -0.93033203 110.37567383 -0.59033203 107.31567383 C29.10966797 107.31567383 58.80966797 107.31567383 89.40966797 107.31567383 C89.73966797 110.28567383 90.06966797 113.25567383 90.40966797 116.31567383 C83.06954191 117.490094 75.82888328 117.39211715 68.40966797 117.31567383 C68.41546875 118.24049561 68.42126953 119.16531738 68.42724609 120.11816406 C68.48285972 133.54254529 68.19535803 146.95745176 67.90966797 160.37817383 C67.86133079 162.70955072 67.8131526 165.04093092 67.76513672 167.37231445 C67.64847692 173.02014023 67.52986682 178.66792232 67.40966797 184.31567383 C60.16217407 187.72658866 52.94131928 191.07928126 45.40966797 193.81567383 C44.62060059 194.10337646 43.8315332 194.3910791 43.01855469 194.6875 C36.91563852 196.86711292 30.75529607 198.81344778 24.53466797 200.62817383 C23.30683594 200.99168945 23.30683594 200.99168945 22.05419922 201.36254883 C9.2954328 204.96430586 -3.14763005 205.63844989 -16.3190918 205.57641602 C-19.01976032 205.56570584 -21.71976186 205.57636201 -24.42041016 205.58911133 C-50.74900804 205.61234582 -73.77564298 198.83010594 -94.59033203 182.31567383 C-96.13720703 181.20192383 -96.13720703 181.20192383 -97.71533203 180.06567383 C-113.43594522 165.02856556 -120.87219764 143.58304141 -121.71484375 122.1484375 C-122.46796328 87.86278805 -116.88581323 59.80665945 -92.59033203 34.31567383 C-76.37010947 17.72310756 -55.20059321 7.06470344 -32.59033203 2.31567383 C-31.71779785 2.12948486 -30.84526367 1.9432959 -29.94628906 1.75146484 C-20.00915194 -0.07410462 -10.07388417 -0.02195986 0 0 Z " fill="#FFFFFF" transform="translate(611.59033203125,75.684326171875)"/>
<path d="M0 0 C1.02705764 -0.00085442 2.05411527 -0.00170885 3.11229587 -0.00258917 C6.51610543 -0.00422189 9.9198645 0.00124088 13.32366943 0.00672913 C15.77861022 0.0070115 18.23355109 0.00685228 20.68849182 0.00628662 C25.95449553 0.00605971 31.22048804 0.00887585 36.48648834 0.01452446 C44.10004044 0.02268583 51.71358657 0.02525941 59.32714257 0.02651245 C71.68259634 0.02869571 84.03804348 0.03533606 96.39349365 0.04481506 C108.3886105 0.054008 120.38372555 0.06107961 132.37884521 0.06532288 C133.48975904 0.06571696 133.48975904 0.06571696 134.62311557 0.06611901 C138.33890169 0.06742414 142.05468782 0.06868782 145.77047396 0.06993091 C176.54830273 0.08028091 207.32611931 0.09870699 238.10394287 0.12025452 C238.10394287 31.14025452 238.10394287 62.16025452 238.10394287 94.12025452 C220.94394287 94.12025452 203.78394287 94.12025452 186.10394287 94.12025452 C186.10394287 89.17025452 186.10394287 84.22025452 186.10394287 79.12025452 C197.58940143 77.87858332 208.33767116 78.12025452 220.10394287 78.12025452 C220.43394287 60.96025452 220.76394287 43.80025452 221.10394287 26.12025452 C145.53394287 26.12025452 69.96394287 26.12025452 -7.89605713 26.12025452 C-7.56605713 30.08025452 -7.23605713 34.04025452 -6.89605713 38.12025452 C-6.89605713 51.32025452 -6.89605713 64.52025452 -6.89605713 78.12025452 C27.09394287 78.12025452 61.08394287 78.12025452 96.10394287 78.12025452 C97.09394287 66.24025452 98.08394287 54.36025452 99.10394287 42.12025452 C99.43394287 40.14025452 99.76394287 38.16025452 100.10394287 36.12025452 C106.57602648 36.38992467 110.44536241 38.6545129 115.10394287 43.12025452 C124.74357304 55.80397843 122.10394287 79.38649426 122.10394287 94.12025452 C73.92394287 94.12025452 25.74394287 94.12025452 -23.89605713 94.12025452 C-23.91668213 78.96087952 -23.93730713 63.80150452 -23.95855713 48.18275452 C-23.97221313 40.99184021 -23.97221313 40.99184021 -23.98614502 33.65565491 C-23.99066162 27.82032776 -23.99066162 27.82032776 -23.99150085 25.09216309 C-23.99304062 23.17887134 -23.99656621 21.26558058 -24.00163269 19.35229492 C-24.00890846 16.46121015 -24.0099646 13.5701849 -24.00958252 10.67909241 C-24.01318063 9.82080117 -24.01677874 8.96250994 -24.02048588 8.07820988 C-24.01008347 2.23428085 -24.01008347 2.23428085 -22.89605713 1.12025452 C-15.30274244 0.10705638 -7.64890248 -0.02385719 0 0 Z " fill="#FFFFFF" transform="translate(111.89605712890625,136.87974548339844)"/>
<path d="M0 0 C-0.46436425 4.64364253 -1.7876905 7.72353034 -4.2578125 11.58203125 C-6.82944988 19.96015515 -2.07501158 29.69632893 0.625 37.625 C0.87421204 38.36565704 1.12342407 39.10631409 1.38018799 39.86941528 C10.27308329 66.26682826 20.04929699 92.37210858 29.70599365 118.49749756 C30.87863956 121.67151225 32.04852676 124.84652494 33.21728516 128.02197266 C45.5992859 167.7115565 45.5992859 167.7115565 67 202 C69.50004478 202.34408282 71.97204261 202.44199003 74.4921875 202.55859375 C77.38567056 203.06788282 78.8093272 204.08952953 81 206 C80.125 212.875 80.125 212.875 79 214 C76.69946165 214.09443335 74.39597827 214.11742128 72.09350586 214.11352539 C71.37159561 214.11367142 70.64968536 214.11381744 69.90589905 214.1139679 C67.50885053 214.11326869 65.11187877 214.10547595 62.71484375 214.09765625 C61.05717511 214.0957921 59.39950593 214.09436818 57.74183655 214.09336853 C53.37045786 214.08954312 48.99911219 214.07971265 44.62774658 214.06866455 C40.17045539 214.05845092 35.71315889 214.05387101 31.25585938 214.04882812 C22.50389107 214.0380904 13.75194964 214.02101371 5 214 C3.75 207.375 3.75 207.375 6 204 C9.71279469 202.76240177 13.31306346 202.64391103 17.1875 202.4375 C17.93708984 202.39431641 18.68667969 202.35113281 19.45898438 202.30664062 C21.30578375 202.20077315 23.15286834 202.0999024 25 202 C23.70550272 195.70100291 22.02771449 189.74509291 19.8828125 183.6875 C19.58438446 182.83373779 19.28595642 181.97997559 18.97848511 181.1003418 C18.35059786 179.30788808 17.72020281 177.51631101 17.08740234 175.72558594 C16.12834637 173.00947713 15.1788337 170.29017014 14.23046875 167.5703125 C13.61514906 165.81750963 12.9992817 164.06489891 12.3828125 162.3125 C11.96384201 161.11210083 11.96384201 161.11210083 11.53640747 159.88745117 C9.83307724 155.08569169 7.91599119 150.45208818 5.756073 145.83666992 C5 144 5 144 5 142 C-19.75 141.67 -44.5 141.34 -70 141 C-70.99 144.3 -71.98 147.6 -73 151 C-73.7860141 153.51999922 -74.57737057 156.03834064 -75.375 158.5546875 C-75.80746551 159.92572643 -76.23975164 161.29682195 -76.671875 162.66796875 C-77.33487669 164.76991881 -77.99889521 166.8715212 -78.66601562 168.97216797 C-84.40362787 185.15318461 -84.40362787 185.15318461 -86 202 C-85.13048706 202.03758423 -85.13048706 202.03758423 -84.2434082 202.07592773 C-81.59957893 202.19246234 -78.95605591 202.31492682 -76.3125 202.4375 C-75.40048828 202.47681641 -74.48847656 202.51613281 -73.54882812 202.55664062 C-72.66259766 202.59853516 -71.77636719 202.64042969 -70.86328125 202.68359375 C-69.64572144 202.73858032 -69.64572144 202.73858032 -68.40356445 202.79467773 C-65.87855515 203.01037431 -63.47399303 203.45899452 -61 204 C-60.97310784 205.47906892 -60.95365379 206.95827483 -60.9375 208.4375 C-60.92589844 209.26121094 -60.91429687 210.08492187 -60.90234375 210.93359375 C-61 213 -61 213 -62 214 C-63.95295183 214.09925594 -65.90951826 214.12799413 -67.86499023 214.12939453 C-69.11976669 214.13254669 -70.37454315 214.13569885 -71.66734314 214.13894653 C-73.04776036 214.13715656 -74.42817727 214.13510556 -75.80859375 214.1328125 C-77.21484901 214.13348565 -78.62110415 214.13445578 -80.02735901 214.13571167 C-82.97894393 214.13718858 -85.93049866 214.13503463 -88.88208008 214.13037109 C-92.66974771 214.12467902 -96.45734441 214.12794952 -100.24500942 214.13394356 C-103.15058427 214.13755381 -106.05614225 214.13640835 -108.96171761 214.13381577 C-110.35839916 214.13314751 -111.75508223 214.13397139 -113.15176201 214.13629532 C-115.10304613 214.13882882 -117.0543356 214.13428411 -119.00561523 214.12939453 C-120.11734604 214.12859894 -121.22907684 214.12780334 -122.37449646 214.12698364 C-125 214 -125 214 -127 213 C-127.85056945 209.44307323 -128.16909807 207.50729422 -127 204 C-123.81747832 202.40873916 -120.34494613 202.7679385 -116.82421875 202.671875 C-112.96536154 201.75386194 -111.60746064 199.95879015 -109 197 C-107.25462417 193.96229188 -107.25462417 193.96229188 -105.8203125 190.53515625 C-105.53509232 189.89073074 -105.24987213 189.24630524 -104.95600891 188.58235168 C-104.00052549 186.41403945 -103.06271723 184.2385484 -102.125 182.0625 C-101.43831937 180.49267828 -100.75087649 178.92318981 -100.06274414 177.35400391 C-92.72635568 160.56691737 -85.60062079 143.68690692 -78.44433594 126.82250977 C-72.14874653 111.99305647 -65.75019088 97.21628561 -59.20619202 82.49499512 C-58.92158615 81.8546936 -58.63698029 81.21439209 -58.34375 80.5546875 C-58.06434067 79.92630981 -57.78493134 79.29793213 -57.49705505 78.6505127 C-54.67547204 72.29236936 -51.93243297 65.90096716 -49.18588257 59.51016235 C-44.61349811 48.88015577 -39.92097021 38.31450133 -35.0625 27.8125 C-34.54284668 26.68473145 -34.02319336 25.55696289 -33.48779297 24.39501953 C-31.04478741 19.15393414 -28.52748001 13.95663586 -25.85546875 8.828125 C-25.3968042 7.94672852 -24.93813965 7.06533203 -24.46557617 6.15722656 C-22.47997778 3.23456334 -20.57800543 2.27651098 -17.21484375 1.41796875 C-16.48394531 1.28003906 -15.75304687 1.14210938 -15 1 C-14.15566406 0.78988281 -13.31132813 0.57976562 -12.44140625 0.36328125 C-7.88088448 -0.70061462 -4.60364885 -1.14477947 0 0 Z M-30 48 C-36.77725887 60.65752759 -42.19803224 73.84199404 -47.59767151 87.1295929 C-49.49644798 91.79336192 -51.44046403 96.43668756 -53.40234375 101.07421875 C-54.23029149 103.04019939 -55.05757352 105.00645881 -55.88464355 106.97280884 C-56.66960172 108.83259397 -57.46215603 110.6891672 -58.25488281 112.5456543 C-58.9698291 114.25168823 -58.9698291 114.25168823 -59.69921875 115.9921875 C-60.12033936 116.98589355 -60.54145996 117.97959961 -60.9753418 119.00341797 C-62.1127516 122.32973866 -62.60256401 125.51378628 -63 129 C-55.35917524 129.02316372 -47.71835412 129.04093569 -40.07750225 129.05181217 C-36.52960152 129.05703216 -32.9817248 129.0641138 -29.43383789 129.07543945 C-25.35562916 129.08837663 -21.27744567 129.09323552 -17.19921875 129.09765625 C-15.92414963 129.10281754 -14.64908051 129.10797882 -13.33537292 129.11329651 C-11.56387627 129.11340981 -11.56387627 129.11340981 -9.7565918 129.11352539 C-8.71512497 129.115746 -7.67365814 129.11796661 -6.60063171 129.12025452 C-3.88515163 129.11286691 -3.88515163 129.11286691 -1 128 C-2.59126825 119.49754304 -5.5114097 111.54719059 -8.4375 103.4375 C-9.52095642 100.4124298 -10.60061075 97.38600987 -11.6796875 94.359375 C-11.95448441 93.58994064 -12.22928131 92.82050629 -12.5124054 92.02775574 C-14.43051499 86.64270033 -16.29719904 81.24181715 -18.1328125 75.828125 C-18.50597343 74.72979088 -18.50597343 74.72979088 -18.88667297 73.60926819 C-19.84766313 70.77857389 -20.80797448 67.94772151 -21.75704956 65.11300659 C-22.40730316 63.17128321 -23.06441898 61.23199742 -23.72265625 59.29296875 C-24.09140869 58.1949292 -24.46016113 57.09688965 -24.84008789 55.96557617 C-25.97352405 53.06769172 -27.26214412 50.57795399 -29 48 C-29.33 48 -29.66 48 -30 48 Z " fill="#FFFFFF" transform="translate(833,66)"/>
<path d="M0 0 C5.15560262 1.97604328 8.12524504 5.02264884 10.4765625 9.94921875 C12.49995943 16.73033279 13.08787507 23.4091746 13.6015625 30.44921875 C13.68792969 31.5578125 13.77429688 32.66640625 13.86328125 33.80859375 C14.07378324 36.52173056 14.27805234 39.23518269 14.4765625 41.94921875 C15.23156351 41.94829696 15.98656452 41.94737516 16.76444435 41.94642544 C35.18721193 41.92428221 53.60997683 41.90776443 72.0327549 41.89740658 C80.94208888 41.89226368 89.85141394 41.88525947 98.76074219 41.8737793 C106.53163261 41.86377089 114.30251657 41.85735074 122.07341325 41.85513026 C126.18300005 41.85383355 130.29256836 41.85081423 134.4021492 41.84348869 C138.28118621 41.83663105 142.16019738 41.83462132 146.03923988 41.83611107 C147.45241118 41.83583907 148.86558347 41.83389236 150.27874947 41.83001328 C159.40111984 41.80623044 168.38836604 42.17647474 177.4765625 42.94921875 C175.73397337 52.04940642 169.49199773 58.77824949 162.5 64.578125 C153.74035736 70.51371297 139.77262959 69.09793768 129.66950989 69.08293152 C128.53208916 69.08519708 127.39466843 69.08746263 126.22278041 69.08979684 C122.43863018 69.0960908 118.65451619 69.09531045 114.87036133 69.09448242 C112.14596421 69.0969355 109.42156958 69.10085206 106.69717407 69.10466003 C100.08053664 69.11293549 93.46390812 69.11571347 86.84726594 69.11627241 C81.46389244 69.11674906 76.08052185 69.1188112 70.69714928 69.12197304 C55.40401761 69.1307712 40.11089293 69.13539374 24.81775872 69.13464256 C23.99480996 69.13460261 23.17186121 69.13456265 22.32397461 69.13452148 C21.50001057 69.1344806 20.67604653 69.13443972 19.82711389 69.1343976 C6.48199972 69.13399139 -6.86308619 69.14355691 -20.20819219 69.15765985 C-33.94053039 69.17205647 -47.67285485 69.17892823 -61.40520078 69.17806607 C-69.10291667 69.17773523 -76.80060294 69.18043254 -84.498312 69.19124413 C-91.05336526 69.20039249 -97.60837547 69.20248904 -104.16343238 69.1957347 C-107.50115396 69.19249119 -110.83872648 69.19344105 -114.17645073 69.20108795 C-155.34331067 69.28924873 -155.34331067 69.28924873 -167.3359375 57.51171875 C-175.5234375 49.2087392 -175.5234375 49.2087392 -175.5234375 44.94921875 C-174.59777623 44.94287084 -174.59777623 44.94287084 -173.65341473 44.93639469 C-158.45283784 44.83189024 -143.25229765 44.72310541 -128.05178356 44.60987949 C-120.70014382 44.55521574 -113.34849935 44.50188698 -105.99682617 44.4519043 C-67.00020882 44.23340496 -67.00020882 44.23340496 -28.01171875 43.4765625 C-26.92746644 43.44852633 -26.92746644 43.44852633 -25.82131004 43.41992378 C-19.23234123 43.89547561 -19.23234123 43.89547561 -13.5234375 41.94921875 C-13.23231269 39.03225483 -12.99949 36.13088269 -12.8046875 33.20703125 C-12.74188599 32.32771942 -12.67908447 31.44840759 -12.61437988 30.54244995 C-12.41304178 27.71999379 -12.21764454 24.89717399 -12.0234375 22.07421875 C-11.82899649 19.25842482 -11.63317994 16.44276707 -11.43249512 13.62741089 C-11.30743409 11.87256565 -11.18598625 10.11745846 -11.06848145 8.36209106 C-11.01172241 7.56471527 -10.95496338 6.76733948 -10.89648438 5.94580078 C-10.84842651 5.24488312 -10.80036865 4.54396545 -10.75085449 3.82180786 C-10.5234375 1.94921875 -10.5234375 1.94921875 -9.5234375 -1.05078125 C-6.23001499 -2.6974925 -3.37583239 -1.07501291 0 0 Z " fill="#FFFFFF" transform="translate(216.5234375,43.05078125)"/>
<path d="M0 0 C12.46311204 8.16850944 17.37017232 18.84533424 20.46484375 33.1484375 C20.76709761 35.11101737 20.91325495 37.0157069 21 39 C21.0515625 39.98613281 21.103125 40.97226562 21.15625 41.98828125 C21.56336642 56.42395088 17.60899035 66.19617932 7.80078125 76.59814453 C-3.39055762 88.06785738 -14.75364144 93.15802615 -31 93.4375 C-44.61597116 93.33330029 -55.30795163 88.49134638 -65.125 79.3125 C-75.20305333 68.75262739 -81.45720168 55.24494027 -81.2109375 40.54296875 C-79.99867274 25.92844353 -72.79848158 12.20946189 -62.1328125 2.2578125 C-60.1621685 0.67966191 -58.1390355 -0.65979015 -56 -2 C-55.22011719 -2.55945313 -54.44023437 -3.11890625 -53.63671875 -3.6953125 C-37.87467552 -13.50381986 -15.11445002 -8.8676695 0 0 Z M-44 24 C-44.61746094 24.52980469 -45.23492187 25.05960937 -45.87109375 25.60546875 C-51.32474885 30.54307907 -55.32975011 36.41676739 -56.41015625 43.8046875 C-56.59147199 49.49642515 -56.18610687 55.14092062 -53 60 C-47.635015 65.4266515 -41.10434246 68.55225355 -33.5625 69.375 C-22.89038857 68.25161985 -16.06805166 63.15733878 -9.2734375 54.90234375 C-5.75715976 49.6494994 -6.30403809 43.03626366 -7 37 C-9.97732092 28.57406412 -17.08061805 21.95969097 -25 18 C-33.32133301 16.89329073 -37.99490533 18.24989873 -44 24 Z " fill="#FFFFFF" transform="translate(250,356)"/>
<path d="M0 0 C2.02562966 -0.02671948 4.05112038 -0.06776646 6.07617188 -0.12304688 C27.77718261 -0.70553014 27.77718261 -0.70553014 36.47290039 7.45996094 C37.53154297 8.44017212 37.53154297 8.44017212 38.61157227 9.44018555 C44.44107469 15.17553613 47.60578171 22.92413727 47.84790039 31.08496094 C47.76210251 32.5461248 47.63711136 34.00552088 47.47290039 35.45996094 C47.40200195 36.19988281 47.33110352 36.93980469 47.25805664 37.70214844 C46.10409299 45.1964292 42.00067282 50.66933499 36.11743164 55.32324219 C30.34740737 59.26719026 26.46809725 60.58647195 19.39868164 60.55761719 C18.14740479 60.55511963 16.89612793 60.55262207 15.60693359 60.55004883 C13.22027466 60.53639282 13.22027466 60.53639282 10.78540039 60.52246094 C5.73227539 60.50183594 0.67915039 60.48121094 -4.52709961 60.45996094 C-4.03209961 80.75496094 -4.03209961 80.75496094 -3.52709961 101.45996094 C0.76290039 102.11996094 5.05290039 102.77996094 9.47290039 103.45996094 C10.46290039 104.44996094 10.46290039 104.44996094 11.47290039 105.45996094 C8.26590251 107.06345988 4.7768883 106.62298454 1.25415039 106.62792969 C0.03362976 106.63292229 0.03362976 106.63292229 -1.21154785 106.63801575 C-2.93309971 106.64308168 -4.6546614 106.64542418 -6.3762207 106.64526367 C-9.01652084 106.64745217 -11.65640458 106.66561661 -14.29663086 106.68457031 C-15.96720234 106.68750384 -17.63777582 106.68948891 -19.30834961 106.69042969 C-20.10108276 106.6976152 -20.89381592 106.70480072 -21.71057129 106.71220398 C-27.29827279 106.68878775 -27.29827279 106.68878775 -29.52709961 104.45996094 C-27.59439379 102.52725511 -24.14068573 102.83333038 -21.52709961 102.45996094 C-17.96798721 98.90084854 -19.40010524 89.08740082 -19.38815308 84.52467346 C-19.39017731 83.23616989 -19.39220154 81.94766632 -19.39428711 80.62011719 C-19.39361112 79.25272098 -19.39263866 77.88532488 -19.39138794 76.51792908 C-19.38991637 73.64743916 -19.39204246 70.77698041 -19.39672852 67.90649414 C-19.40233473 64.30420175 -19.39911469 60.70198478 -19.39327621 57.09969521 C-19.37021633 40.19790968 -19.64177469 23.34264332 -20.52709961 6.45996094 C-23.82709961 5.79996094 -27.12709961 5.13996094 -30.52709961 4.45996094 C-30.85709961 3.46996094 -31.18709961 2.47996094 -31.52709961 1.45996094 C-21.04387139 0.30866412 -10.5373815 0.10586043 0 0 Z M-2.52709961 5.45996094 C-4.56099378 9.67486275 -4.77243376 13.12652935 -4.75756836 17.78027344 C-4.75711014 18.47957977 -4.75665192 19.17888611 -4.75617981 19.89938354 C-4.75316806 21.37695007 -4.74531409 22.85451372 -4.73291016 24.33203125 C-4.71482617 26.55708504 -4.71239969 28.78171677 -4.71264648 31.00683594 C-5.80043251 44.11025787 -5.80043251 44.11025787 -2.52709961 55.45996094 C7.2456699 57.25495942 17.47913704 57.19635506 26.46899414 52.39355469 C31.96958024 48.23725148 33.46946893 42.68578336 34.41040039 36.20996094 C34.92305953 28.60377323 32.34788901 22.56541084 28.47290039 16.14746094 C22.14498856 9.40940668 11.43643403 5.82103305 2.36352539 5.35058594 C0.7329616 5.33754143 -0.89795798 5.39063576 -2.52709961 5.45996094 Z " fill="#FFFFFF" transform="translate(747.527099609375,349.5400390625)"/>
<path d="M0 0 C0.9075 0.12375 1.815 0.2475 2.75 0.375 C2.585 1.055625 2.42 1.73625 2.25 2.4375 C1.01858981 9.67203484 2.35381325 15.12031292 4.75 21.875 C5.06147476 22.78014847 5.37294952 23.68529694 5.69386292 24.61787415 C6.70234144 27.54057765 7.72584639 30.45775652 8.75 33.375 C9.44614289 35.38143845 10.14137235 37.38819404 10.83569336 39.39526367 C12.19316619 43.3141959 13.55642109 47.23103132 14.92529297 51.14599609 C16.4049689 55.37978494 17.86728271 59.61894324 19.31640625 63.86328125 C22.83700989 74.15952585 26.47071458 84.36642336 30.75 94.375 C31.20761719 95.52097656 31.66523437 96.66695313 32.13671875 97.84765625 C34.54339127 103.70410528 34.54339127 103.70410528 39.12890625 107.78125 C41.3524942 108.53288536 43.42674149 109.0652322 45.75 109.375 C45.255 110.86 45.255 110.86 44.75 112.375 C40.58741853 112.42469106 36.42499739 112.46085642 32.26220703 112.48486328 C30.84811391 112.49487856 29.43404127 112.50849474 28.02001953 112.52587891 C25.97944054 112.55032559 23.93913697 112.56152784 21.8984375 112.5703125 C20.67302246 112.58078613 19.44760742 112.59125977 18.18505859 112.60205078 C14.71166703 112.37246626 11.98393024 111.6261457 8.75 110.375 C9.08 109.715 9.41 109.055 9.75 108.375 C11.81640625 107.7421875 11.81640625 107.7421875 14.3125 107.25 C15.13878906 107.08242188 15.96507812 106.91484375 16.81640625 106.7421875 C17.45449219 106.62101562 18.09257813 106.49984375 18.75 106.375 C17.23029269 99.33635561 15.24860557 92.52019648 12.8125 85.75 C12.57192871 85.05132812 12.33135742 84.35265625 12.08349609 83.6328125 C10.77185571 79.96912112 10.77185571 79.96912112 8.18041992 77.18261719 C4.57446737 75.984376 1.02123175 76.13053285 -2.734375 76.1796875 C-3.54996887 76.1825174 -4.36556274 76.18534729 -5.20587158 76.18826294 C-7.80406528 76.19943442 -10.40191095 76.22453325 -13 76.25 C-14.76431793 76.26003373 -16.52864128 76.26915889 -18.29296875 76.27734375 C-22.61211273 76.29936381 -26.93099741 76.33387267 -31.25 76.375 C-31.44698486 77.03886719 -31.64396973 77.70273437 -31.84692383 78.38671875 C-33.14520347 82.74213501 -34.48414854 87.06877345 -35.9375 91.375 C-37.49552803 96.48727946 -37.47802204 101.05448566 -37.25 106.375 C-33.62 107.035 -29.99 107.695 -26.25 108.375 C-26.25 109.365 -26.25 110.355 -26.25 111.375 C-32.1316504 112.72536174 -37.93058774 112.55910818 -43.9375 112.5625 C-45.09056641 112.57474609 -46.24363281 112.58699219 -47.43164062 112.59960938 C-48.53056641 112.60154297 -49.62949219 112.60347656 -50.76171875 112.60546875 C-51.76678467 112.60957764 -52.77185059 112.61368652 -53.80737305 112.61791992 C-56.25 112.375 -56.25 112.375 -58.25 110.375 C-57.755 109.385 -57.755 109.385 -57.25 108.375 C-56.00605469 108.03082031 -54.76210938 107.68664062 -53.48046875 107.33203125 C-49.79637244 106.01528512 -48.43599121 104.68465775 -46.67578125 101.19921875 C-45.94141337 99.49960535 -45.23825569 97.78625641 -44.5625 96.0625 C-44.18150146 95.15604736 -43.80050293 94.24959473 -43.40795898 93.31567383 C-40.94267703 87.37402291 -38.76031484 81.34670608 -36.6875 75.2578125 C-34.45611655 68.99979619 -31.64517406 62.96282748 -28.96850586 56.88647461 C-26.67151969 51.66488946 -24.44162115 46.44179686 -22.375 41.125 C-19.72345239 34.39707891 -16.85417533 27.77085453 -13.9364624 21.1541748 C-13.14184196 19.35072408 -12.35235835 17.54501279 -11.56298828 15.73925781 C-4.82667258 0.55692376 -4.82667258 0.55692376 0 0 Z M-9.25 24.375 C-13.09475577 31.67411119 -16.34894375 39.14755972 -19.38183594 46.81762695 C-20.13283113 48.70720388 -20.90220619 50.58866804 -21.671875 52.47070312 C-22.14882813 53.67275391 -22.62578125 54.87480469 -23.1171875 56.11328125 C-23.55144043 57.19649658 -23.98569336 58.27971191 -24.43310547 59.39575195 C-25.57570022 62.6897151 -25.57570022 62.6897151 -24.25 67.375 C-14.68 67.375 -5.11 67.375 4.75 67.375 C6.45610928 63.96278144 4.43264285 60.44345347 3.328125 56.97265625 C3.06747253 56.13915146 2.80682007 55.30564667 2.53826904 54.44688416 C1.98366631 52.68126938 1.42522532 50.91685643 0.86328125 49.15356445 C0.0057913 46.45572065 -0.83375731 43.75274369 -1.671875 41.04882812 C-2.21246027 39.3355959 -2.75409283 37.62269372 -3.296875 35.91015625 C-3.54701355 35.1007106 -3.7971521 34.29126495 -4.05487061 33.45729065 C-4.29812073 32.70318405 -4.54137085 31.94907745 -4.79199219 31.17211914 C-5.10629181 30.17856163 -5.10629181 30.17856163 -5.42694092 29.16493225 C-6.376675 27.09951593 -7.56774204 25.88269536 -9.25 24.375 Z " fill="#FFFFFF" transform="translate(668.25,343.625)"/>
<path d="M0 0 C-0.103125 1.134375 -0.20625 2.26875 -0.3125 3.4375 C-0.29957856 8.0477795 0.73704014 12.14320466 2.07421875 16.51953125 C2.29500092 17.25463928 2.51578308 17.98974731 2.74325562 18.74713135 C5.65469077 28.31881913 8.88196459 37.78668439 12.125 47.25 C12.6148941 48.68235489 12.6148941 48.68235489 13.11468506 50.14364624 C17.31796866 62.41540628 21.58732305 74.65999908 26.125 86.8125 C26.5492627 87.96588867 26.97352539 89.11927734 27.41064453 90.30761719 C30.87864498 100.20602355 30.87864498 100.20602355 38.23828125 107.12109375 C38.92277344 107.22550781 39.60726563 107.32992187 40.3125 107.4375 C42.1378125 107.7159375 42.1378125 107.7159375 44 108 C43.505 109.485 43.505 109.485 43 111 C38.99679847 111.95377184 35.27788253 112.1157616 31.16796875 112.09765625 C29.87568359 112.09443359 28.58339844 112.09121094 27.25195312 112.08789062 C25.89713474 112.07953665 24.54231703 112.07107172 23.1875 112.0625 C21.81315265 112.05748 20.43880355 112.05291797 19.06445312 112.04882812 C15.70959076 112.03705668 12.35481779 112.02061283 9 112 C8.67 110.68 8.34 109.36 8 108 C12.455 107.01 12.455 107.01 17 106 C14.86356138 97.68152624 12.61188341 89.49191791 9.734375 81.390625 C9 79 9 79 9 76 C3.66147206 75.9505269 -1.67692214 75.91424575 -7.015625 75.89013672 C-8.83140386 75.88008509 -10.64716656 75.86644172 -12.46289062 75.84912109 C-15.07425935 75.82483594 -17.68541387 75.81350852 -20.296875 75.8046875 C-21.10743347 75.79436493 -21.91799194 75.78404236 -22.75311279 75.77340698 C-28.24232244 75.66240288 -28.24232244 75.66240288 -33 78 C-34.06985471 79.81893666 -34.06985471 79.81893666 -34.66796875 82 C-35.04767822 83.20112427 -35.04767822 83.20112427 -35.43505859 84.42651367 C-35.68336426 85.27576416 -35.93166992 86.12501465 -36.1875 87 C-36.44869629 87.85762939 -36.70989258 88.71525879 -36.97900391 89.59887695 C-38.69324558 95.41682578 -39.800557 100.91698855 -40 107 C-36.37 107.33 -32.74 107.66 -29 108 C-29 109.32 -29 110.64 -29 112 C-33.04160556 112.05831395 -37.08310205 112.09370212 -41.125 112.125 C-42.26710938 112.14175781 -43.40921875 112.15851563 -44.5859375 112.17578125 C-46.24882813 112.18544922 -46.24882813 112.18544922 -47.9453125 112.1953125 C-49.46922607 112.21102295 -49.46922607 112.21102295 -51.02392578 112.22705078 C-54.28288429 111.97841818 -56.95115207 111.14878364 -60 110 C-58.24778405 107.97111838 -57.14255394 107.04751798 -54.5625 106.1875 C-48.3857243 103.32509175 -46.34480048 95.33157827 -44.0625 89.375 C-43.40855396 87.69492219 -42.75359301 86.01523909 -42.09765625 84.3359375 C-41.76145264 83.47339355 -41.42524902 82.61084961 -41.07885742 81.72216797 C-39.12247305 76.78582814 -37.05371096 71.89643595 -35 67 C-34.17766559 65.02373687 -33.35604616 63.04717608 -32.53515625 61.0703125 C-28.47856934 51.31414829 -24.40615429 41.56800745 -20.21875 31.8671875 C-19.14533697 29.34191453 -18.12317258 26.80566599 -17.125 24.25 C-15.14822907 19.26619193 -13.02227737 14.3496727 -10.875 9.4375 C-10.5258252 8.62635742 -10.17665039 7.81521484 -9.81689453 6.97949219 C-9.48286621 6.2218457 -9.14883789 5.46419922 -8.8046875 4.68359375 C-8.50546387 3.99837646 -8.20624023 3.31315918 -7.89794922 2.60717773 C-6.07338168 -0.65849059 -3.37324793 -0.08876968 0 0 Z M-11 25 C-13.51058355 28.62333924 -15.16479282 32.52614025 -16.84765625 36.5859375 C-17.1050206 37.20594635 -17.36238495 37.8259552 -17.62754822 38.4647522 C-18.16811705 39.76996687 -18.70670598 41.07600313 -19.2434082 42.3828125 C-20.05815719 44.36443745 -20.88114919 46.34248965 -21.70507812 48.3203125 C-22.23227047 49.59614782 -22.75897905 50.87218318 -23.28515625 52.1484375 C-23.75832275 53.29489746 -24.23148926 54.44135742 -24.71899414 55.62255859 C-26.02257571 59.05952209 -27.04160665 62.45442365 -28 66 C-22.89423788 68.06351089 -18.53182284 68.27325095 -13.125 68.1875 C-12.36058594 68.18685547 -11.59617187 68.18621094 -10.80859375 68.18554688 C-5.79696481 68.14725769 -0.96120677 67.70632215 4 67 C1.27288518 56.00707255 -1.76422026 45.27265655 -5.66796875 34.63671875 C-6.83845932 31.44103922 -7.94195066 28.23432143 -9 25 C-9.66 25 -10.32 25 -11 25 Z " fill="#FFFFFF" transform="translate(1008,344)"/>
<path d="M0 0 C2.51467473 0.00318035 5.02819287 -0.02043798 7.54272461 -0.0456543 C9.16056169 -0.04792602 10.77840189 -0.04863138 12.39624023 -0.04760742 C13.13807053 -0.05681717 13.87990082 -0.06602692 14.64421082 -0.07551575 C19.73378108 -0.03073671 23.25925693 1.04871527 27.82202148 3.31567383 C27.82202148 7.27567383 27.82202148 11.23567383 27.82202148 15.31567383 C27.16202148 15.64567383 26.50202148 15.97567383 25.82202148 16.31567383 C24.45792375 15.42352955 23.13140395 14.47384451 21.82202148 13.50317383 C14.43940336 8.87830695 6.31063333 8.76976343 -2.17797852 8.31567383 C-3.15508789 8.25637695 -4.13219727 8.19708008 -5.13891602 8.13598633 C-17.54982066 7.77450367 -29.44424368 10.64754342 -39.26391602 18.43286133 C-47.43446528 26.47001387 -52.22451513 37.81295822 -52.70922852 49.16333008 C-52.7197133 51.5682777 -52.7090245 53.97340375 -52.67797852 56.37817383 C-52.69344727 57.58022461 -52.70891602 58.78227539 -52.72485352 60.02075195 C-52.66710636 73.25206965 -47.84562497 83.44111871 -38.86547852 93.06567383 C-29.58188073 101.82110193 -18.6811789 103.83579596 -6.22094727 103.56176758 C3.90949103 102.74248951 14.02960388 99.75715727 20.92749023 91.92504883 C22.13898659 90.33636495 23.31630236 88.72063967 24.44702148 87.07348633 C24.90077148 86.4934082 25.35452148 85.91333008 25.82202148 85.31567383 C26.48202148 85.31567383 27.14202148 85.31567383 27.82202148 85.31567383 C28.9656526 87.60293606 29.08704081 89.1441981 29.19702148 91.69067383 C29.24600586 92.4615332 29.29499023 93.23239258 29.34545898 94.02661133 C28.55388675 97.48826302 26.73969439 98.3835433 23.82202148 100.31567383 C21.4351639 101.60866868 19.09037788 102.80216399 16.63452148 103.94067383 C16.02543945 104.23973633 15.41635742 104.53879883 14.78881836 104.84692383 C5.35245842 109.26685615 -4.20948946 109.68876204 -14.51782227 109.6862793 C-16.54341805 109.69065318 -18.56682811 109.72709777 -20.59204102 109.76489258 C-35.13822374 109.80767547 -44.83554007 106.17449265 -55.33422852 96.28442383 C-64.06480111 87.29323713 -67.06592104 76.56353974 -68.17797852 64.31567383 C-68.30366211 62.97762695 -68.30366211 62.97762695 -68.43188477 61.61254883 C-69.11669574 46.85597693 -63.49003285 31.22765017 -53.99047852 20.06567383 C-38.57335033 4.00401687 -21.39625797 -0.05667605 0 0 Z " fill="#FFFFFF" transform="translate(572.177978515625,347.684326171875)"/>
<path d="M0 0 C19.15691634 -0.0820249 38.29992969 0.13975046 57.45324707 0.46356201 C61.14198297 0.52545216 64.8307588 0.58486718 68.51953125 0.64453125 C75.67972685 0.76068833 82.83987703 0.87944192 90 1 C90.02698189 2.62490954 90.04638757 4.24994633 90.0625 5.875 C90.07410156 6.77992188 90.08570313 7.68484375 90.09765625 8.6171875 C90 11 90 11 89 13 C86.28402416 12.52071015 83.8099416 11.93092115 81.21240234 10.98681641 C77.91080454 9.97260009 75.16985122 9.6882134 71.7265625 9.5859375 C70.57285156 9.54726563 69.41914062 9.50859375 68.23046875 9.46875 C67.04066406 9.4378125 65.85085938 9.406875 64.625 9.375 C63.41199219 9.33632813 62.19898438 9.29765625 60.94921875 9.2578125 C57.96629479 9.16386214 54.98337175 9.07819193 52 9 C51.97685466 20.68272641 51.95907369 32.36544738 51.94818783 44.04819202 C51.94296382 49.47264731 51.93587486 54.89708693 51.92456055 60.3215332 C51.91371463 65.55401959 51.90771953 70.7864909 51.90512276 76.01898766 C51.9032716 78.01771978 51.89965687 80.01645105 51.89426994 82.01517677 C51.88703694 84.80937119 51.88601002 87.60350285 51.88647461 90.39770508 C51.8810817 91.64387604 51.8810817 91.64387604 51.87557983 92.91522217 C51.8815161 96.20319433 51.95273848 98.85821544 53 102 C57.29 102.66 61.58 103.32 66 104 C66.33 104.99 66.66 105.98 67 107 C62.04657734 107.99550706 57.34489309 108.13097403 52.3203125 108.09765625 C51.50754852 108.0962413 50.69478455 108.09482635 49.85739136 108.09336853 C47.27988899 108.08780335 44.7024758 108.0752574 42.125 108.0625 C40.36979293 108.0574805 38.61458448 108.05291838 36.859375 108.04882812 C32.57288268 108.03784534 28.28645643 108.02060492 24 108 C24 106.68 24 105.36 24 104 C28.60547409 102.84863148 31.93994143 103 37 103 C36.67 71.98 36.34 40.96 36 9 C22.2302467 9 9.86099425 9.03610748 -3 14 C-4.25955231 10.22134307 -3.48087189 8.96588214 -2.0625 5.3125 C-1.68222656 4.31863281 -1.30195312 3.32476562 -0.91015625 2.30078125 C-0.60980469 1.54152344 -0.30945313 0.78226562 0 0 Z " fill="#FFFFFF" transform="translate(858,348)"/>
<path d="M0 0 C1.2148407 -0.00855011 1.2148407 -0.00855011 2.45422363 -0.01727295 C4.16559547 -0.02671233 5.87698539 -0.03325271 7.58837891 -0.03710938 C10.20897882 -0.04683872 12.82880208 -0.07788079 15.44921875 -0.109375 C17.11197451 -0.11590299 18.77473587 -0.12115426 20.4375 -0.125 C21.22193481 -0.1373468 22.00636963 -0.1496936 22.8145752 -0.16241455 C28.26340039 -0.14004022 28.26340039 -0.14004022 30.73632812 1.72363281 C31.06052734 2.21186523 31.38472656 2.70009766 31.71875 3.203125 C28.18688168 5.35371809 25.05587007 5.5828978 20.96875 5.828125 C19.79828125 5.90289062 18.6278125 5.97765625 17.421875 6.0546875 C16.52984375 6.10367187 15.6378125 6.15265625 14.71875 6.203125 C14.69529999 15.08041507 14.67767212 23.95769404 14.66693783 32.83500862 C14.66177893 36.95967855 14.65481312 41.08432687 14.64331055 45.20898438 C14.54910958 67.83262468 14.54910958 67.83262468 15.16015625 90.4453125 C15.21863991 91.79425095 15.21863991 91.79425095 15.27830505 93.17044067 C15.13489779 97.00192524 15.13489779 97.00192524 16.71875 100.203125 C19.19814674 100.34181512 21.64747408 100.41636852 24.12890625 100.44140625 C25.26845009 100.45351387 25.26845009 100.45351387 26.43101501 100.46586609 C28.05270085 100.47974293 29.67441633 100.49044886 31.29614258 100.49829102 C32.92611475 100.50966031 34.55605437 100.52986397 36.18579102 100.55981445 C47.6559136 100.77054543 57.73376523 99.55189415 68.71875 96.203125 C69.04875 97.193125 69.37875 98.183125 69.71875 99.203125 C68.79296875 100.9921875 68.79296875 100.9921875 67.40625 102.828125 C66.95636719 103.43914062 66.50648437 104.05015625 66.04296875 104.6796875 C64.71875 106.203125 64.71875 106.203125 62.71875 107.203125 C60.88319542 107.29927706 59.04412536 107.33108476 57.20605469 107.33251953 C56.05014832 107.33567169 54.89424194 107.33882385 53.70330811 107.34207153 C52.44512268 107.3400473 51.18693726 107.33802307 49.890625 107.3359375 C48.59489563 107.33689423 47.29916626 107.33785095 45.96417236 107.33883667 C43.21015235 107.34031404 40.45616469 107.33816199 37.70214844 107.33349609 C34.21275551 107.32786609 30.72344066 107.33103409 27.23405075 107.33706856 C23.86956976 107.34161356 20.50510819 107.33839991 17.140625 107.3359375 C15.90673035 107.33796173 14.67283569 107.33998596 13.40155029 107.34207153 C-4.201364 107.29558941 -4.201364 107.29558941 -11.28125 106.203125 C-11.61125 105.543125 -11.94125 104.883125 -12.28125 104.203125 C-4.65625 102.203125 -4.65625 102.203125 -1.28125 102.203125 C-0.62398237 80.91184915 -0.17607354 59.63032207 -0.15625 38.328125 C-0.15375244 37.38932495 -0.15125488 36.4505249 -0.14868164 35.48327637 C-0.14276718 32.78829296 -0.1442796 30.09342227 -0.1484375 27.3984375 C-0.14645355 26.61447601 -0.1444696 25.83051453 -0.14242554 25.02279663 C0.12706689 15.33737117 0.12706689 15.33737117 -2.28125 6.203125 C-4.39971285 5.51583246 -4.39971285 5.51583246 -6.84375 5.078125 C-7.67003906 4.91054688 -8.49632812 4.74296875 -9.34765625 4.5703125 C-9.98574219 4.44914062 -10.62382813 4.32796875 -11.28125 4.203125 C-11.28125 3.213125 -11.28125 2.223125 -11.28125 1.203125 C-7.50134827 -0.05684224 -3.93970675 0.02134438 0 0 Z " fill="#FFFFFF" transform="translate(1070.28125,348.796875)"/>
<path d="M0 0 C1.12599609 -0.00128906 2.25199219 -0.00257813 3.41210938 -0.00390625 C4.59482422 -0.00003906 5.77753906 0.00382812 6.99609375 0.0078125 C8.15173828 0.00394531 9.30738281 0.00007813 10.49804688 -0.00390625 C16.8950991 0.003359 23.09280941 0.28015634 29.43359375 1.1328125 C29.92859375 2.6178125 29.92859375 2.6178125 30.43359375 4.1328125 C27.90883913 5.39518981 26.12158909 5.23137654 23.30859375 5.1953125 C22.39851562 5.18628906 21.4884375 5.17726563 20.55078125 5.16796875 C19.85210938 5.15636719 19.1534375 5.14476562 18.43359375 5.1328125 C18.54107797 17.05909742 18.65370799 28.98532153 18.77293301 40.91149521 C18.8281299 46.44911462 18.88154481 51.98673934 18.9309082 57.52441406 C18.97859934 62.8671759 19.030944 68.20987362 19.0865345 73.5525589 C19.1069365 75.59231218 19.12565314 77.63208302 19.14266777 79.67186737 C19.16675938 82.52577572 19.1968076 85.37956318 19.22827148 88.23339844 C19.23690468 89.5022287 19.23690468 89.5022287 19.24571228 90.79669189 C19.29175721 94.46380105 19.53857692 97.55274518 20.43359375 101.1328125 C23.73359375 101.7928125 27.03359375 102.4528125 30.43359375 103.1328125 C30.43359375 104.4528125 30.43359375 105.7728125 30.43359375 107.1328125 C18.55359375 107.1328125 6.67359375 107.1328125 -5.56640625 107.1328125 C-5.56640625 105.8128125 -5.56640625 104.4928125 -5.56640625 103.1328125 C-1.11140625 102.6378125 -1.11140625 102.6378125 3.43359375 102.1328125 C4.65180693 95.4743762 4.57775927 88.88633694 4.56640625 82.1328125 C4.56736298 80.86550293 4.5683197 79.59819336 4.56930542 78.29248047 C4.56998518 75.60608503 4.56865297 72.9197808 4.56396484 70.23339844 C4.55946411 67.52829786 4.55934102 64.82326441 4.56396484 62.11816406 C4.58527586 48.76435056 4.55454896 35.41616941 4.05078125 22.0703125 C4.02041779 21.14299316 3.99005432 20.21567383 3.95877075 19.26025391 C3.75092536 14.58167345 3.38148719 10.47177549 1.43359375 6.1328125 C-0.7100482 4.98866658 -0.7100482 4.98866658 -3.19140625 4.7578125 C-4.00867188 4.62632812 -4.8259375 4.49484375 -5.66796875 4.359375 C-6.29445313 4.28460938 -6.9209375 4.20984375 -7.56640625 4.1328125 C-7.56640625 3.1428125 -7.56640625 2.1528125 -7.56640625 1.1328125 C-4.93182742 -0.18447692 -2.94779058 0.00325492 0 0 Z " fill="#FFFFFF" transform="translate(815.56640625,348.8671875)"/>
</svg>
