<?xml version="1.0" standalone="no"?>
<!DOCTYPE svg PUBLIC "-//W3C//DTD SVG 20010904//EN"
 "http://www.w3.org/TR/2001/REC-SVG-20010904/DTD/svg10.dtd">
<svg version="1.0" xmlns="http://www.w3.org/2000/svg"
 width="871.000000pt" height="366.000000pt" viewBox="0 0 871.000000 366.000000"
 preserveAspectRatio="xMidYMid meet">

<g transform="translate(0.000000,366.000000) scale(0.100000,-0.100000)"
fill="#000000" stroke="none">
<path d="M1555 3340 c-4 -6 -11 -80 -15 -164 -4 -85 -10 -158 -14 -165 -5 -8
-172 -11 -612 -11 -332 0 -604 -3 -604 -6 0 -16 67 -96 99 -118 84 -59 25 -56
1231 -56 1239 0 1158 -5 1238 73 38 37 72 92 72 118 0 5 -266 9 -610 9 l-609
0 -5 33 c-3 17 -7 64 -9 103 -5 85 -30 141 -72 166 -43 24 -81 32 -90 18z"/>
<path d="M6152 3155 c-35 -7 -70 -19 -77 -26 -12 -13 -131 -268 -189 -407 -15
-34 -40 -93 -57 -130 -17 -37 -84 -191 -149 -342 -64 -151 -127 -297 -139
-325 -37 -85 -39 -89 -55 -125 -66 -155 -70 -160 -134 -160 -42 0 -52 -3 -57
-20 -3 -11 -3 -29 0 -40 6 -20 13 -20 248 -18 l242 3 0 35 0 35 -92 3 c-109 3
-112 7 -88 104 22 85 75 252 107 341 l10 27 278 0 c210 0 280 -3 287 -12 5 -7
22 -47 37 -88 51 -138 126 -353 126 -362 0 -4 -33 -8 -74 -8 -82 0 -103 -12
-92 -55 l6 -25 275 0 275 0 6 25 c11 43 -1 55 -55 55 -47 0 -50 1 -79 48 -17
26 -39 67 -50 92 -11 25 -29 65 -40 90 -18 39 -53 125 -97 240 -8 19 -34 91
-59 160 -24 69 -90 247 -145 395 -55 149 -105 298 -112 332 -12 60 -12 62 15
103 27 41 29 71 4 69 -7 -1 -42 -7 -76 -14z m-38 -565 c35 -107 78 -233 96
-280 17 -47 32 -92 33 -100 2 -13 -31 -15 -232 -18 -129 -1 -238 1 -242 5 -4
5 13 53 36 108 24 55 48 114 55 130 7 17 21 48 30 70 10 22 30 72 46 110 15
39 40 99 56 134 25 57 31 63 43 50 9 -8 44 -102 79 -209z"/>
<path d="M4370 3075 c-199 -40 -353 -120 -477 -247 -149 -153 -216 -323 -217
-548 -1 -332 103 -525 349 -644 144 -70 201 -81 410 -81 152 0 194 3 270 22
118 29 202 57 302 100 l83 35 2 252 3 251 83 3 83 3 -3 32 -3 32 -335 0 -335
0 -3 -32 -3 -32 122 -3 123 -3 8 -35 c4 -19 11 -120 14 -225 l7 -190 -28 -33
c-69 -82 -168 -110 -333 -93 -167 18 -274 65 -378 167 -125 123 -175 263 -178
499 -2 256 48 402 183 535 85 84 161 126 278 155 159 38 436 -22 545 -118 31
-27 67 -100 68 -135 0 -20 24 -41 35 -30 5 5 55 255 55 277 0 22 -119 65 -240
86 -106 19 -398 19 -490 0z"/>
<path d="M7545 3071 c-290 -72 -483 -260 -555 -541 -31 -120 -31 -347 0 -475
64 -267 198 -407 456 -476 110 -30 401 -33 514 -5 279 70 459 256 531 551 27
107 28 329 3 442 -52 239 -193 407 -402 479 -134 47 -409 59 -547 25z m303
-90 c194 -59 322 -200 389 -426 26 -88 25 -420 -1 -520 -55 -210 -166 -343
-330 -398 -70 -24 -216 -23 -287 2 -155 53 -247 132 -309 263 -66 141 -82 231
-83 463 -1 145 3 183 22 257 56 218 172 348 340 379 65 11 185 2 259 -20z"/>
<path d="M667 2623 c-4 -3 -7 -161 -7 -350 l0 -343 546 0 547 0 -6 138 c-7
167 -19 213 -63 252 -32 28 -79 48 -89 38 -3 -2 -10 -72 -15 -154 -6 -82 -14
-152 -19 -157 -4 -4 -180 -6 -392 -5 l-384 3 -3 198 -2 197 860 0 860 0 -2
-197 -3 -198 -127 -3 -128 -3 0 -54 0 -55 190 0 190 0 0 350 0 350 -973 0
c-536 0 -977 -3 -980 -7z"/>
<path d="M312 1732 c-2 -7 -3 -323 0 -701 l4 -688 28 -46 c22 -39 32 -47 56
-47 25 0 33 7 52 43 23 41 23 50 28 437 l5 395 1146 3 1147 2 5 -392 c3 -254
9 -406 16 -430 22 -71 82 -88 125 -37 l26 31 -2 721 -3 722 -1314 0 c-1075 0
-1314 -2 -1319 -13z m2364 -213 c32 -12 68 -32 81 -45 22 -22 24 -31 21 -116
l-3 -93 -1145 0 -1145 0 -3 85 c-3 102 14 146 68 172 33 17 104 18 1052 18
1015 0 1017 0 1074 -21z"/>
<path d="M4976 1058 c-8 -13 -24 -45 -36 -73 -31 -71 -44 -102 -74 -168 -14
-32 -26 -63 -26 -70 0 -7 -4 -17 -8 -22 -5 -6 -21 -41 -37 -80 -15 -38 -38
-94 -51 -123 -13 -29 -24 -58 -24 -65 0 -7 -4 -17 -8 -23 -5 -5 -15 -25 -22
-44 -39 -105 -50 -120 -87 -120 -14 0 -23 -6 -23 -15 0 -13 17 -15 117 -13 79
2 118 7 120 15 3 8 -12 13 -44 15 -48 3 -48 3 -51 41 -3 33 8 78 38 152 5 11
11 28 14 38 5 15 21 17 155 17 165 0 159 2 181 -69 5 -14 18 -51 29 -81 12
-30 21 -65 21 -77 0 -20 -5 -23 -41 -23 -28 0 -39 -4 -37 -12 3 -9 42 -14 136
-16 113 -2 132 0 132 13 0 10 -10 15 -28 15 -16 0 -36 8 -44 18 -15 17 -88
186 -88 204 0 5 -6 24 -14 41 -8 18 -16 41 -19 52 -3 11 -28 83 -55 160 -27
77 -51 147 -54 155 -40 119 -40 122 -29 146 15 33 14 34 -9 34 -11 0 -26 -10
-34 -22z m-1 -215 c10 -32 27 -87 40 -123 12 -36 27 -81 33 -100 7 -19 8 -38
4 -42 -5 -5 -60 -7 -123 -6 -108 3 -114 4 -111 23 3 17 106 275 119 298 11 18
22 3 38 -50z"/>
<path d="M7513 1068 c-5 -7 -22 -44 -38 -83 -15 -38 -32 -74 -37 -79 -4 -6 -8
-16 -8 -23 0 -7 -11 -36 -24 -65 -13 -29 -35 -79 -50 -111 -14 -32 -26 -61
-26 -65 0 -5 -11 -32 -25 -60 -14 -29 -25 -58 -25 -65 0 -7 -4 -17 -8 -23 -5
-5 -15 -25 -22 -44 -56 -149 -71 -175 -109 -178 -19 -2 -31 -8 -28 -15 2 -8
42 -13 120 -15 100 -2 117 0 117 13 0 11 -11 15 -44 15 -26 0 -46 5 -49 13 -7
19 3 77 25 142 35 104 19 96 190 93 l152 -3 38 -110 c21 -60 36 -116 33 -123
-2 -6 -20 -12 -40 -12 -25 0 -35 -4 -35 -15 0 -13 19 -15 132 -13 94 2 133 7
136 16 2 8 -7 12 -26 12 -44 0 -70 38 -117 170 -15 41 -29 82 -32 90 -29 79
-106 301 -113 325 -4 17 -18 56 -30 89 -16 42 -20 69 -16 97 5 34 4 39 -13 39
-10 0 -23 -6 -28 -12z m-13 -185 c0 -15 17 -71 40 -128 14 -34 50 -160 50
-173 0 -9 -32 -12 -120 -12 -102 0 -120 2 -120 16 0 14 48 137 91 231 10 23
19 46 19 50 0 11 21 33 32 33 4 0 8 -8 8 -17z"/>
<path d="M1495 1022 c-135 -66 -233 -231 -223 -375 9 -133 115 -281 235 -328
45 -18 77 -23 143 -23 121 1 184 27 270 114 92 91 114 149 107 275 -10 168
-63 255 -190 319 -71 35 -85 39 -180 43 -97 4 -105 3 -162 -25z m232 -191 c63
-46 95 -94 101 -151 6 -64 -10 -101 -64 -149 -72 -63 -149 -77 -224 -38 -59
30 -82 64 -88 130 -6 71 13 110 88 181 53 51 63 56 103 56 33 0 54 -7 84 -29z"/>
<path d="M4120 1036 c-152 -38 -272 -147 -312 -286 -26 -85 -30 -140 -17 -221
14 -93 40 -147 94 -201 77 -78 149 -101 300 -95 129 5 150 9 230 47 92 43 99
50 91 93 -4 21 -10 37 -14 37 -4 0 -17 -16 -29 -35 -51 -79 -161 -118 -288
-104 -38 4 -84 15 -102 24 -62 31 -129 101 -158 167 -24 54 -28 75 -29 163 -1
111 10 154 57 228 67 108 165 151 322 144 104 -5 165 -14 165 -26 0 -11 57
-41 64 -34 3 3 6 25 6 48 0 35 -4 44 -25 53 -33 15 -294 14 -355 -2z"/>
<path d="M6434 1034 c-3 -10 -10 -29 -15 -42 -18 -45 -12 -53 25 -31 47 28
244 40 264 17 9 -12 12 -96 10 -359 l-3 -344 -52 -3 c-39 -2 -53 -7 -53 -18 0
-12 25 -14 162 -12 114 2 163 6 165 15 3 8 -14 13 -53 15 -54 3 -58 5 -66 33
-10 34 -7 661 3 677 5 7 46 9 118 6 86 -4 116 -10 131 -23 26 -23 40 -11 40
36 l0 39 -228 0 c-126 0 -277 3 -335 7 -99 6 -107 5 -113 -13z"/>
<path d="M6060 1025 c0 -10 10 -15 34 -15 61 0 61 2 64 -378 3 -377 6 -362
-55 -362 -23 0 -33 -5 -33 -15 0 -13 22 -15 140 -15 118 0 140 2 140 15 0 11
-11 15 -40 15 -29 0 -42 5 -50 20 -7 12 -9 139 -8 367 l3 348 48 3 c32 2 47 7
44 15 -2 8 -47 13 -145 15 -122 2 -142 0 -142 -13z"/>
<path d="M7947 1033 c-15 -14 -5 -23 27 -23 62 0 61 3 58 -379 -1 -190 -6
-349 -10 -353 -4 -4 -24 -8 -45 -10 -20 -2 -38 -7 -40 -13 -2 -10 519 -20 558
-11 19 5 60 64 51 73 -2 2 -31 -5 -65 -17 -49 -16 -86 -20 -200 -20 -135 0
-139 1 -145 23 -8 29 -8 671 0 691 5 12 21 16 65 16 46 0 59 3 59 15 0 13 -24
15 -153 15 -85 0 -157 -3 -160 -7z"/>
<path d="M5370 1020 c0 -10 23 -17 70 -22 l25 -3 3 -359 c2 -387 4 -376 -50
-376 -16 0 -28 -4 -28 -10 0 -6 57 -10 150 -10 146 0 201 13 99 22 -28 3 -55
12 -60 19 -5 8 -9 79 -9 160 l0 145 118 0 c117 -1 118 -1 169 32 29 19 55 42
58 53 4 10 10 19 14 19 16 0 34 91 28 141 -9 75 -43 128 -107 167 l-54 32
-213 0 c-133 0 -213 -4 -213 -10z m312 -32 c99 -22 156 -73 179 -160 17 -63
-11 -153 -58 -184 -36 -24 -117 -35 -183 -26 l-45 7 -3 165 c-1 91 0 175 3
188 6 26 27 28 107 10z"/>
</g>
</svg>
